<svg width="1280" height="720" xmlns="http://www.w3.org/2000/svg" xmlns:xlink="http://www.w3.org/1999/xlink" overflow="hidden"><defs><clipPath id="clip0"><path d="M0 0 1280 0 1280 720 0 720Z" fill-rule="evenodd" clip-rule="evenodd"/></clipPath></defs><g clip-path="url(#clip0)"><rect x="0" y="0" width="1280" height="720" fill="#FFFFFF"/><text fill="#898989" font-family="Calibri,Calibri_MSFontService,sans-serif" font-weight="400" font-size="16" transform="translate(922.467 546)">4</text><rect x="163" y="135" width="190" height="190" fill="#00B0F0"/><text font-family="Quicksand,Quicksand_MSFontService,sans-serif" font-weight="400" font-size="21" transform="translate(176.153 211)">Misconfiguration <tspan x="3.66666" y="26">and Inadequate </tspan><tspan x="4.57999" y="52">Change Control</tspan></text><rect x="419" y="135" width="190" height="190" fill="#00B0F0"/><text font-family="Quicksand,Quicksand_MSFontService,sans-serif" font-weight="400" font-size="21" transform="translate(446.582 199)">Lack of Cloud <tspan x="27.92" y="26">Security </tspan><tspan x="-14" y="52">Architecture and </tspan><tspan x="25.1667" y="77">Strategy</tspan></text><rect x="664" y="135" width="190" height="190" fill="#00B0F0"/><text font-family="Quicksand,Quicksand_MSFontService,sans-serif" font-weight="400" font-size="21" transform="translate(700.838 186)">Insufficient <tspan x="14.3333" y="26">Identity, </tspan><tspan x="-35.9133" y="52">Credential, Access </tspan><tspan x="11.5" y="77">And Key </tspan><tspan x="-12.6667" y="103">Management</tspan></text><rect x="922" y="134" width="190" height="190" fill="#00B0F0"/><text font-family="Quicksand,Quicksand_MSFontService,sans-serif" font-weight="400" font-size="21" transform="translate(949.166 236)">Insider Threat</text><rect x="162" y="446" width="190" height="190" fill="#00B0F0"/><text font-family="Quicksand,Quicksand_MSFontService,sans-serif" font-weight="400" font-size="21" transform="translate(189.565 536)">Weak Control <tspan x="34.9133" y="26">Planes </tspan></text><rect x="419" y="447" width="190" height="189" fill="#00B0F0"/><text font-family="Quicksand,Quicksand_MSFontService,sans-serif" font-weight="400" font-size="21" transform="translate(461.745 527)">Abuse and <tspan x="-29.7467" y="26">Nefarious Use of </tspan><tspan x="-19.2467" y="51">Cloud Services</tspan></text><rect x="664" y="447" width="190" height="190" fill="#00B0F0"/><text font-family="Quicksand,Quicksand_MSFontService,sans-serif" font-weight="400" font-size="21" transform="translate(717.394 524)">Insecure <tspan x="-29.5867" y="26">Interfaces and </tspan><tspan x="20.4133" y="52">APIs</tspan></text><rect x="922" y="446" width="190" height="190" fill="#00B0F0"/><text font-family="Quicksand,Quicksand_MSFontService,sans-serif" font-weight="400" font-size="21" transform="translate(976.999 536)">Account <tspan x="-5" y="26">Hijacking</tspan></text></g></svg>